<svg id="Capa_1" enable-background="new 0 0 512.333 512.333" height="512" viewBox="0 0 512.333 512.333" width="512" xmlns="http://www.w3.org/2000/svg"><g><path d="m241.167 367.333v145h15l11-76-11-69z" fill="#6e61b6"/><path d="m256.167 367.333h15v145h-15z" fill="#54469c"/><path d="m118.051 352.333-76.17 68.964s66.025 44.733 124.548 28.381c69.994-19.557 89.738-75.352 89.738-75.352l-52-25.994z" fill="#f4cbff"/><path d="m394.283 352.333h-92.116l-46 21.994s19.744 55.795 89.738 75.352c58.523 16.352 124.548-28.381 124.548-28.381z" fill="#e19ff6"/><path d="m176.886 103.659c-53.164-27.211-107.7-44.25-109.996-44.962l-14.804-4.592-4.104 14.947c-.465 1.693-11.466 42.034-18.283 90.945-9.413 67.531-6.069 116.66 9.938 146.032.616 1.183 1.261 2.373 1.914 3.536 23.958 42.683 68.45 66.726 114.231 66.726 21.647 0 43.591-5.381 63.773-16.709z" fill="#e19ff6"/><path d="m482.635 159.997c-6.817-48.911-17.818-89.251-18.283-90.945l-4.104-14.947-14.804 4.592c-2.296.712-56.832 17.751-109.996 44.962l-42.67 255.922c20.187 11.331 42.123 16.709 63.774 16.709 45.776 0 90.274-24.046 114.229-66.723.654-1.166 1.299-2.356 1.915-3.539 16.008-29.371 19.352-78.501 9.939-146.031z" fill="#d88ef7"/><path d="m245.387 11.139c-1.32 1.364-32.707 33.912-64.586 76.771-43.922 59.051-66.226 107.225-66.294 143.187-1.78 78.85 62.965 144.163 141.659 143.231l37-146.994-36.999-227.334z" fill="#b460e7"/><path d="m397.825 231.093c-.068-35.962-22.371-84.133-66.293-143.184-31.879-42.859-63.266-75.406-64.586-76.771l-10.779-11.138v374.327c78.847.867 143.41-64.41 141.658-143.234z" fill="#a04cd9"/></g></svg>